<svg xmlns="http://www.w3.org/2000/svg" xmlns:xlink="http://www.w3.org/1999/xlink"><symbol id="icon-message"><path stroke-width="3" stroke="#95E1D3" d="M6.5 6.499h150V156.5H6.5V6.499z" fill="none"/><path fill-rule="evenodd" fill="#95E1D3" d="M110.5 87.498h-2v5.001c0 .205-.021.409-.061.604-.028.136-.076.263-.122.392-.02.058-.03.117-.053.17-.048.115-.115.22-.176.327-.035.06-.061.126-.1.184a2.99 2.99 0 01-.334.403c-.012.013-.02.029-.033.04a2.983 2.983 0 01-2.084.876l-.037.002a2.986 2.986 0 01-2.121-.878l-7.122-7.121H68.5a3 3 0 01-3-3v-30a3 3 0 013-3.001h42a3 3 0 013 3.001v30a3 3 0 01-3 3zm-15.485 3l6.326 6.327.008-.008a5.97 5.97 0 004.151 1.682v2a3 3 0 01-3 2.999H70.743l-8.122 8.122a2.995 2.995 0 01-2.121.879c-.013 0-.024-.004-.037-.004a2.993 2.993 0 01-2.084-.875c-.013-.013-.021-.029-.033-.041a2.938 2.938 0 01-.334-.404c-.039-.057-.064-.122-.099-.183-.062-.108-.129-.212-.177-.326-.023-.054-.033-.114-.053-.17-.046-.13-.094-.256-.122-.394a2.999 2.999 0 01-.061-.605v-5.999h-4.004a3 3 0 01-2.996-2.999V66.498a3 3 0 013-3h9v21a6 6 0 006 6h26.515z"/></symbol><symbol id="icon-photography-white"><path fill-rule="evenodd" fill="#fff" d="M30 23.999c0 .651-.419 1.2-1 1.407v1.683a1.498 1.498 0 01-.5 2.91c-.652 0-1.202-.42-1.408-1.001h-1.684A1.497 1.497 0 0124 29.999c-.652 0-1.202-.42-1.408-1.001h-1.684a1.497 1.497 0 01-1.408 1.001c-.652 0-1.201-.42-1.408-1.001h-1.684A1.497 1.497 0 0115 29.999c-.652 0-1.202-.42-1.408-1.001h-1.684a1.496 1.496 0 01-1.408 1.001c-.652 0-1.202-.42-1.408-1.001H7.408A1.496 1.496 0 016 29.999c-.652 0-1.202-.42-1.408-1.001H2.908A1.497 1.497 0 011.5 29.999a1.498 1.498 0 01-.5-2.91v-1.683c-.581-.207-1-.756-1-1.407 0-.654.419-1.202 1-1.409v-1.683c-.581-.208-1-.757-1-1.409 0-.651.419-1.201 1-1.408v-1.684c-.581-.206-1-.755-1-1.407a1.5 1.5 0 011-1.41v-1.683c-.581-.206-1-.755-1-1.408 0-.652.419-1.202 1-1.407V7.406c-.581-.207-1-.756-1-1.408 0-.652.419-1.202 1-1.408V2.905C.419 2.7 0 2.15 0 1.498A1.5 1.5 0 011.5-.001c.652 0 1.201.417 1.408 1h1.684a1.493 1.493 0 012.816 0h1.684a1.493 1.493 0 012.816 0h1.684c.206-.583.756-1 1.408-1 .652 0 1.201.417 1.408 1h1.684c.207-.583.756-1 1.408-1 .652 0 1.201.417 1.408 1h1.684c.206-.583.756-1 1.408-1 .652 0 1.201.417 1.408 1h1.684c.206-.583.756-1 1.408-1 .828 0 1.5.67 1.5 1.499 0 .652-.419 1.202-1 1.407V4.59c.581.206 1 .756 1 1.408 0 .652-.419 1.201-1 1.408v1.685c.581.205 1 .755 1 1.407 0 .653-.419 1.202-1 1.408v1.683a1.5 1.5 0 011 1.41c0 .652-.419 1.201-1 1.407v1.684c.581.207 1 .757 1 1.408 0 .652-.419 1.201-1 1.409v1.683c.581.207 1 .755 1 1.409zM26 3.997H4v22.001h22V3.997zM13 19.998l7-8.499 4.5 7v5.999h-19l6-5.999 1.5 1.499zm-3-7a3 3 0 110-6 3 3 0 010 6z"/></symbol></svg>