<svg xmlns="http://www.w3.org/2000/svg" width="163" height="163"><path stroke-width="3" stroke="#95E1D3" d="M6.5 6.499h150V156.5H6.5V6.499z" fill="none"/><path fill-rule="evenodd" fill="#95E1D3" d="M110.5 87.498h-2v5.001c0 .205-.021.409-.061.604-.028.136-.076.263-.122.392-.02.058-.03.117-.053.17-.048.115-.115.22-.176.327-.035.06-.061.126-.1.184a2.99 2.99 0 01-.334.403c-.012.013-.02.029-.033.04a2.983 2.983 0 01-2.084.876l-.037.002a2.986 2.986 0 01-2.121-.878l-7.122-7.121H68.5a3 3 0 01-3-3v-30a3 3 0 013-3.001h42a3 3 0 013 3.001v30a3 3 0 01-3 3zm-15.485 3l6.326 6.327.008-.008a5.97 5.97 0 004.151 1.682v2a3 3 0 01-3 2.999H70.743l-8.122 8.122a2.995 2.995 0 01-2.121.879c-.013 0-.024-.004-.037-.004a2.993 2.993 0 01-2.084-.875c-.013-.013-.021-.029-.033-.041a2.938 2.938 0 01-.334-.404c-.039-.057-.064-.122-.099-.183-.062-.108-.129-.212-.177-.326-.023-.054-.033-.114-.053-.17-.046-.13-.094-.256-.122-.394a2.999 2.999 0 01-.061-.605v-5.999h-4.004a3 3 0 01-2.996-2.999V66.498a3 3 0 013-3h9v21a6 6 0 006 6h26.515z"/></svg>